:version 1.10
:name ASF
:units
  mass 1
  length 1
  angle deg
:documentation
  ASF file generated by Kaydara
:root
  axis xyz
  order  tx ty tz rx ry rz
  position 0 0 0
  orientation 0 0 0
:bonedata
  begin
    id 1
    name lfemurDummy
    direction 0.61522 -0.761478 0.204097
    length 5.68318
    axis 0 -0 0 xyz
  end
  begin
    id 2
    name lfemur
    direction 0.34202 -0.939693 -5.84747e-008
    length 16.9147
    axis 0 -0 20 xyz
    dof rx ry rz
    limits( -inf , inf )
( -inf , inf )
( -inf , inf )

  end
  begin
    id 3
    name ltibia
    direction 0.34202 -0.939693 1.20839e-009
    length 18.0532
    axis 0 -0 20 xyz
    dof rz ry rx
    limits( -inf , inf )
( -inf , inf )
( -inf , inf )

  end
  begin
    id 4
    name lfoot
    direction 0.0841971 -0.23133 0.969225
    length 5.23822
    axis -90 7.62852e-016 20 xyz
    dof ry rx rz
    limits( -inf , inf )
( -inf , inf )
( -inf , inf )

  end
  begin
    id 5
    name ltoes
    direction 0 0 0
    length 0
    axis 0 0 0 xyz
    dof rz ry rx
    limits( -inf , inf )
( -inf , inf )
( -inf , inf )

  end
  begin
    id 6
    name rfemurDummy
    direction -0.625247 -0.75382 0.202044
    length 5.74091
    axis 0 -0 0 xyz
  end
  begin
    id 7
    name rfemur
    direction -0.34202 -0.939693 -1.47013e-008
    length 16.4922
    axis 0 -0 -20 xyz
    dof rx ry rz
    limits( -inf , inf )
( -inf , inf )
( -inf , inf )

  end
  begin
    id 8
    name rtibia
    direction -0.34202 -0.939693 -7.74345e-010
    length 18.2421
    axis 0 -0 -20 xyz
    dof rz ry rx
    limits( -inf , inf )
( -inf , inf )
( -inf , inf )

  end
  begin
    id 9
    name rfoot
    direction -0.124331 -0.341598 0.931586
    length 5.45787
    axis -90 -7.62852e-016 -20 xyz
    dof ry rx rz
    limits( -inf , inf )
( -inf , inf )
( -inf , inf )

  end
  begin
    id 10
    name rtoes
    direction 0 0 0
    length 0
    axis 0 0 0 xyz
    dof rz ry rx
    limits( -inf , inf )
( -inf , inf )
( -inf , inf )

  end
  begin
    id 11
    name lowerbackDummy
    direction 0 0 0
    length 0
    axis 0 -0 0 xyz
  end
  begin
    id 12
    name lowerback
    direction -0.0218484 0.994884 -0.0986304
    length 4.45607
    axis 0 -0 0 xyz
    dof rx ry rz
    limits( -inf , inf )
( -inf , inf )
( -inf , inf )

  end
  begin
    id 13
    name upperback
    direction -0.00973057 0.999717 -0.0217111
    length 4.47449
    axis 0 -0 0 xyz
    dof rx ry rz
    limits( -inf , inf )
( -inf , inf )
( -inf , inf )

  end
  begin
    id 14
    name thorax
    direction -0.000928171 0.999699 0.0245198
    length 4.50973
    axis 0 -0 0 xyz
    dof rx ry rz
    limits( -inf , inf )
( -inf , inf )
( -inf , inf )

  end
  begin
    id 15
    name rclavicle
    direction -0.9009 0.425937 -0.0834055
    length 7.28587
    axis 0 -0 0 xyz
    dof rx ry rz
    limits( -inf , inf )
( -inf , inf )
( -inf , inf )

  end
  begin
    id 16
    name rhumerus
    direction -1 -2.23604e-007 -1.42637e-007
    length 13.5704
    axis 180 30 90 xyz
    dof rx ry rz
    limits( -inf , inf )
( -inf , inf )
( -inf , inf )

  end
  begin
    id 17
    name rradius
    direction -1 5.68281e-008 -4.4952e-007
    length 8.06782
    axis 180 30 90 xyz
    dof rz ry rx
    limits( -inf , inf )
( -inf , inf )
( -inf , inf )

  end
  begin
    id 18
    name rwrist
    direction -1 1.51393e-007 1.38143e-007
    length 4.03391
    axis -90 -90 0 xyz
    dof rz rx ry
    limits( -inf , inf )
( -inf , inf )
( -inf , inf )

  end
  begin
    id 19
    name rthumb
    direction 0 0 0
    length 0
    axis 0 0 0 xyz
    dof ry rx rz
    limits( -inf , inf )
( -inf , inf )
( -inf , inf )

  end
  begin
    id 20
    name rhand
    direction -1 -3.34077e-007 -5.59631e-007
    length 1.29744
    axis -90 -90 0 xyz
    dof ry rx rz
    limits( -inf , inf )
( -inf , inf )
( -inf , inf )

  end
  begin
    id 21
    name rfingers
    direction 0 0 0
    length 0
    axis 0 0 0 xyz
    dof rz ry rx
    limits( -inf , inf )
( -inf , inf )
( -inf , inf )

  end
  begin
    id 22
    name lclavicle
    direction 0.940017 0.332249 -0.0773232
    length 8.29589
    axis 0 -0 0 xyz
    dof rx ry rz
    limits( -inf , inf )
( -inf , inf )
( -inf , inf )

  end
  begin
    id 23
    name lhumerus
    direction 1 7.41158e-008 -1.44768e-008
    length 12.0042
    axis 180 -30 -90 xyz
    dof rx ry rz
    limits( -inf , inf )
( -inf , inf )
( -inf , inf )

  end
  begin
    id 24
    name lradius
    direction 1 -1.32972e-007 3.10821e-007
    length 8.1902
    axis 180 -30 -90 xyz
    dof rz ry rx
    limits( -inf , inf )
( -inf , inf )
( -inf , inf )

  end
  begin
    id 25
    name lwrist
    direction 1 3.08957e-007 4.01394e-007
    length 4.09509
    axis -90 90 0 xyz
    dof rz rx ry
    limits( -inf , inf )
( -inf , inf )
( -inf , inf )

  end
  begin
    id 26
    name lthumb
    direction 0 0 0
    length 0
    axis 0 0 0 xyz
    dof ry rx rz
    limits( -inf , inf )
( -inf , inf )
( -inf , inf )

  end
  begin
    id 27
    name lhand
    direction 1 -1.64125e-007 -6.99514e-007
    length 1.37229
    axis -90 90 0 xyz
    dof ry rx rz
    limits( -inf , inf )
( -inf , inf )
( -inf , inf )

  end
  begin
    id 28
    name lfingers
    direction 0 0 0
    length 0
    axis 0 0 0 xyz
    dof rz ry rx
    limits( -inf , inf )
( -inf , inf )
( -inf , inf )

  end
  begin
    id 29
    name lowerneck
    direction -0.030798 0.998024 0.0547665
    length 3.93918
    axis 0 -0 0 xyz
    dof rx ry rz
    limits( -inf , inf )
( -inf , inf )
( -inf , inf )

  end
  begin
    id 30
    name upperneck
    direction 0.0531588 0.996611 -0.0627736
    length 3.95491
    axis 0 -0 0 xyz
    dof rx ry rz
    limits( -inf , inf )
( -inf , inf )
( -inf , inf )

  end
  begin
    id 31
    name head
    direction 0 0 0
    length 0
    axis 0 0 0 xyz
    dof rx ry rz
    limits( -inf , inf )
( -inf , inf )
( -inf , inf )

  end
:hierarchy
  begin
    root lfemurDummy rfemurDummy lowerbackDummy
    lfemurDummy lfemur
    lfemur ltibia
    ltibia lfoot
    lfoot ltoes
    rfemurDummy rfemur
    rfemur rtibia
    rtibia rfoot
    rfoot rtoes
    lowerbackDummy lowerback
    lowerback upperback
    upperback thorax
    thorax rclavicle lclavicle lowerneck
    rclavicle rhumerus
    rhumerus rradius
    rradius rwrist
    rwrist rthumb rhand
    rhand rfingers
    lclavicle lhumerus
    lhumerus lradius
    lradius lwrist
    lwrist lthumb lhand
    lhand lfingers
    lowerneck upperneck
    upperneck head
  end

:SAMPLES-PER-SECOND 30
:FULLY-SPECIFIED
:DEGREES
46
root  0.806931154 38.5788895 3.218866709 5.935974121 -88.0943985 -4.46697998
lowerback  14.01360035 3.652800083 -3.475620031
upperback  4.863890171 4.002470016 -2.2707901
thorax  -2.782480001 1.871739984 -1.061679959
lowerneck  -1.083739996 6.698440075 -5.065710068
upperneck  12.66860008 8.509730339 5.094719887
head  3.885829926 4.102610111 2.874219894
lclavicle  0 -9.442270133e-015 7.951389973e-016
lhumerus  -6.811100006 -3.050570011 74.19439697
lradius  2.856269148e-031 -2.076191366e-031 143.9869995
lwrist  0 -8.827812596e-032 21.78490067
lhand  -1.496451383e-031 -27.76390076 20.11240005
lfingers  90 7.125020027 -90
lthumb  89.89689403 5.08795885 91.16245106
rclavicle  0 -9.442270133e-015 7.951389973e-016
rhumerus  -6.079939842 15.94309998 -83.915802
rradius  -2.650365569e-031 2.333325179e-031 138.6399994
rwrist  1.412450015e-030 -0 -7.398439884
rhand  -7.920061211e-032 -33.2840004 9.303460121
rfingers  -90 -7.125020027 -90
rthumb  -92.93752616 -24.25625642 -97.11982154
rfemur  -11.03549957 19.09020042 6.161240101
rtibia  -0 0 62.94290161
rfoot  -4.415816796e-032 1.685469985 4.187099934
rtoes  5.373923086 19.29304026 -105.8922705
lfemur  -41.96179962 20.21450043 -9.3832798
ltibia  -0 0 69.89710236
lfoot  -0 -1.235999942 -8.004779816
ltoes  -4.250644065 -19.5611806 -102.515957
47
root  0.812711115 38.55488995 3.19744433 -4.726013184 -87.58760071 6.09197998
lowerback  14.34959984 3.727410078 -3.893140078
upperback  4.925580025 4.010620117 -2.375499964
thorax  -2.917710066 1.869869947 -0.9588500261
lowerneck  -1.127529979 6.822490215 -5.348700047
upperneck  12.46109962 8.720140457 4.952199936
head  3.802850008 4.193950176 2.871959925
lclavicle  0 -9.442270133e-015 7.951389973e-016
lhumerus  -4.883840084 -2.407530069 72.76429749
lradius  2.858188229e-031 -2.07354867e-031 144.0399933
lwrist  -1.412450015e-030 2.206953149e-031 23.63439941
lhand  -1.496451383e-031 -27.76390076 20.11240005
lfingers  90 7.125020027 -90
lthumb  89.89689403 5.08795885 91.16245106
rclavicle  0 -9.442270133e-015 7.951389973e-016
rhumerus  -4.140500069 15.85490036 -83.07019806
rradius  -2.657439185e-031 2.325265795e-031 138.8139954
rwrist  7.062250077e-031 -0 -8.209159851
rhand  -7.920061211e-032 -33.2840004 9.303460121
rfingers  -90 -7.125020027 -90
rthumb  -92.93752616 -24.25625642 -97.11982154
rfemur  -12.72140026 20.00090027 5.749690056
rtibia  -0 0 65.21050262
rfoot  -4.414271106e-032 0.7366200089 4.050499916
rtoes  5.373923086 19.29304026 -105.8922705
lfemur  -42.45849991 20.29509926 -10.09140015
ltibia  -0 0 70.68650055
lfoot  4.416362383e-032 -1.910940051 -5.793900013
ltoes  -4.250644065 -19.5611806 -102.515957
48
root  0.8191911254 38.49310988 3.17093331 -11.14099121 -86.93759918 12.37200928
lowerback  14.68830013 3.848839998 -4.164629936
upperback  5.007160187 4.093780041 -2.545480013
thorax  -3.019639969 1.905230045 -1.018339992
lowerneck  -1.090309978 6.816770077 -5.568419933
upperneck  12.15740013 8.743100166 4.878230095
head  3.681070089 4.200449944 2.870140076
lclavicle  0 -9.442270133e-015 7.951389973e-016
lhumerus  -2.735810041 -1.863059998 71.48899841
lradius  2.856486431e-031 -2.075892411e-031 143.9929962
lwrist  -7.062250077e-031 1.765562519e-031 25.18930054
lhand  -1.496451383e-031 -27.76390076 20.11240005
lfingers  90 7.125020027 -90
lthumb  89.89689403 5.08795885 91.16245106
rclavicle  0 -9.442270133e-015 7.951389973e-016
rhumerus  -2.067090034 15.54990005 -82.19259644
rradius  -2.669577888e-031 2.311319523e-031 139.1139984
rwrist  7.062250077e-031 -1.765562519e-031 -9.183970451
rhand  -7.920061211e-032 -33.2840004 9.303460121
rfingers  -90 -7.125020027 -90
rthumb  -92.93752616 -24.25625642 -97.11982154
rfemur  -14.28789997 20.78050041 5.407790184
rtibia  -0 0 67.30490112
rfoot  -4.414027471e-032 -0.4245449901 2.613549948
rtoes  5.373923086 19.29304026 -105.8922705
lfemur  -42.86750031 20.30509949 -10.81840038
ltibia  -0 0 71.46060181
lfoot  6.629028939e-032 -2.844820023 -3.060549974
ltoes  -4.250644065 -19.5611806 -102.515957
49
root  0.8078111438 38.41733257 3.158555444 -17.23498535 -86.22810364 18.29998779
lowerback  14.87469959 3.982239962 -4.373000145
upperback  5.141530037 4.204100132 -2.833499908
thorax  -2.971100092 1.952139974 -1.230200052
lowerneck  -0.917667985 6.705440044 -5.666739941
upperneck  11.71920013 8.616780281 4.757400036
head  3.502840042 4.138410091 2.816669941
lclavicle  0 -9.442270133e-015 7.951389973e-016
lhumerus  -0.4006679952 -1.078250051 70.39910126
lradius  2.847328621e-031 -2.088435721e-031 143.7409973
lwrist  -7.062250077e-031 4.413906298e-032 25.93129921
lhand  -1.496451383e-031 -27.76390076 20.11240005
lfingers  90 7.125020027 -90
lthumb  89.89689403 5.08795885 91.16245106
rclavicle  0 -9.442270133e-015 7.951389973e-016
rhumerus  0.1048860028 15.31999969 -81.33129883
rradius  -2.680038581e-031 2.299181864e-031 139.3739929
rwrist  1.412450015e-030 -0 -9.634840012
rhand  -7.920061211e-032 -33.2840004 9.303460121
rfingers  -90 -7.125020027 -90
rthumb  -92.93752616 -24.25625642 -97.11982154
rfemur  -15.69349957 21.43549919 4.927700043
rtibia  -0 0 69.11199951
rfoot  -4.415880247e-032 -1.71322 0.3723460138
rtoes  5.373923086 19.29304026 -105.8922705
lfemur  -43.03359985 20.11580086 -11.66899967
ltibia  -0 0 72.05039978
lfoot  5.528615565e-032 -3.652960062 -0.9963129759
ltoes  -4.250644065 -19.5611806 -102.515957
